<?xml version="1.0" encoding="UTF-8"?>
<svg id="Camada_1" xmlns="http://www.w3.org/2000/svg" version="1.1" viewBox="0 0 200 200">
  <!-- Generator: Adobe Illustrator 29.0.0, SVG Export Plug-In . SVG Version: 2.1.0 Build 186)  -->
  <defs>
    <style>
      .st0 {
        fill: #ff6000;
      }
    </style>
  </defs>
  <path class="st0" d="M100.42,196.6c-53.41,0-96.87-43.46-96.87-96.88S47.01,2.86,100.42,2.86s96.87,43.46,96.87,96.87-43.46,96.88-96.87,96.88ZM100.42,4.34C47.82,4.34,5.03,47.13,5.03,99.73s42.79,95.4,95.39,95.4,95.39-42.79,95.39-95.4S153.02,4.34,100.42,4.34Z"/>
  <path class="st0" d="M100.42,175.48c-41.77,0-75.75-33.98-75.75-75.74S58.66,23.99,100.42,23.99s75.74,33.98,75.74,75.75-33.98,75.74-75.74,75.74ZM100.42,25.47c-40.95,0-74.26,33.31-74.26,74.26s33.31,74.26,74.26,74.26,74.26-33.32,74.26-74.26S141.37,25.47,100.42,25.47Z"/>
  <rect class="st0" x="99.68" y="174.73" width="1.48" height="21.13"/>
  <rect class="st0" x="99.68" y="3.6" width="1.48" height="21.13"/>
  <path class="st0" d="M134.27,109.64l-2.14-1.54c-.77-.55-1.84-.38-2.39.39l-8.26,11.46c-2.4,3.33-7.63.82-6.52-3.14l13.69-49.27c.26-.91-.28-1.85-1.19-2.1l-2.54-.71c-.91-.25-1.86.28-2.11,1.19l-11.84,42.57c-1.14,4.13-7.22,3.3-7.22-.98v-49.18c0-.94-.77-1.71-1.72-1.71h-3.24c-.94,0-1.71.76-1.71,1.71v49.18c0,4.29-6.08,5.11-7.23.98l-11.84-42.57c-.25-.91-1.19-1.44-2.1-1.19l-2.54.71c-.91.25-1.45,1.19-1.19,2.1l13.69,49.27c1.1,3.96-4.13,6.47-6.53,3.14l-8.26-11.46c-.55-.77-1.62-.94-2.39-.39l-2.14,1.54c-.76.55-.94,1.62-.39,2.39l12.17,16.9c4.82,6.69,12.57,10.66,20.82,10.66h2.49c8.25,0,15.99-3.97,20.81-10.66l12.17-16.9c.56-.76.38-1.84-.39-2.39"/>
</svg>