<?xml version="1.0" encoding="UTF-8"?>
<svg id="Camada_1" xmlns="http://www.w3.org/2000/svg" version="1.1" viewBox="0 0 800 200">
  <!-- Generator: Adobe Illustrator 29.0.0, SVG Export Plug-In . SVG Version: 2.1.0 Build 186)  -->
  <defs>
    <style>
      .st0 {
        display: none;
      }

      .st0, .st1 {
        fill: #ff6000;
      }
    </style>
  </defs>
  <g>
    <path class="st1" d="M179.99,51.57v123.64c0,1.25,1,2.25,2.25,2.25h8.23c1.25,0,2.25-1,2.25-2.25V51.57c0-1.25-1-2.25-2.25-2.25h-8.23c-1.25,0-2.25,1-2.25,2.25"/>
    <path class="st1" d="M360.88,77.39c-5.34-9.79-13.31-17.3-23.65-22.34-10.26-5-22.91-7.51-37.59-7.51s-27.33,2.52-37.59,7.51c-10.34,5.04-18.3,12.55-23.65,22.34-5.3,9.7-8.01,21.7-8.01,35.64v.35c0,14.02,2.7,26.06,8.01,35.85,5.34,9.83,13.31,17.38,23.65,22.44,10.26,5.04,22.89,7.57,37.59,7.57s27.33-2.54,37.59-7.57c10.34-5.06,18.3-12.61,23.65-22.44,5.3-9.79,8-21.84,8-35.85v-.35c0-13.94-2.7-25.94-8-35.64M355.7,113.03v.35c0,19.65-4.67,34.48-13.88,44.02-9.17,9.54-23.38,14.37-42.17,14.37s-33-4.83-42.17-14.37c-9.21-9.54-13.88-24.36-13.88-44.02v-.35c0-19.53,4.67-34.25,13.86-43.73,9.19-9.48,23.4-14.29,42.19-14.29s33,4.81,42.17,14.29c9.21,9.48,13.88,24.2,13.88,43.73"/>
    <path class="st1" d="M715.81,135.13c-1.17-.35-2.44.31-2.78,1.47-3.36,11.1-9.7,19.63-18.9,25.37-9.85,6.14-22.91,9.25-38.8,9.25-19.12,0-34.07-4.95-44.43-14.72-10.34-9.75-15.58-24.12-15.58-42.69h121.47c1.17,0,2.15-.88,2.25-2.05.16-1.9.37-4.69.37-6.35,0-10.91-2.83-20.88-8.41-29.67-5.57-8.76-13.49-15.74-23.52-20.74-10.01-5-21.66-7.51-34.64-7.51-14.06,0-26.59,2.72-37.26,8.11-10.69,5.4-19.08,13.18-24.96,23.09-5.86,9.93-8.82,21.6-8.82,34.7v.47c0,13.98,2.91,26.04,8.62,35.83,5.71,9.83,14.11,17.38,24.94,22.46,10.75,5.06,23.81,7.64,38.78,7.64,18.06,0,33.02-3.69,44.51-10.91,10.91-6.9,18.41-16.93,22.3-29.85.37-1.21-.31-2.48-1.51-2.83l-3.6-1.09ZM595.63,105.36c.9-10.38,3.66-19.39,8.25-26.8,4.73-7.64,11.34-13.55,19.63-17.52,8.33-4.01,18.34-6.04,29.75-6.04s20.62,2.05,28.48,6.08c7.82,4.01,13.84,9.89,17.95,17.48,4.03,7.47,6.1,16.5,6.2,26.8h-110.27Z"/>
    <path class="st1" d="M651.81,28.18l14.74,7.43c1.19.59,2.52.92,3.87.92h2.95c1,0,1.45-1.27.66-1.92l-15.21-12.3c-1.78-1.43-3.99-2.21-6.29-2.21h-1.43c-2.29,0-4.5.78-6.29,2.21l-15.21,12.3c-.8.66-.35,1.92.68,1.92h2.93c1.35,0,2.68-.33,3.87-.92l14.74-7.43Z"/>
    <path class="st1" d="M134.37,105.56c4.63-5.26,6.96-12.51,6.96-21.58v-.33c0-11.3-3.3-20-9.81-25.86-6.45-5.81-16.01-8.76-28.42-8.76H7.97c-1.25,0-2.25,1-2.25,2.25v124.19c0,1.25,1,2.25,2.25,2.25h95.14c12.41,0,21.97-2.93,28.42-8.74,6.51-5.88,9.81-14.58,9.81-25.86v-.33c0-9.07-2.33-16.34-6.96-21.58-3.17-3.6-7.35-6.22-12.45-7.84,5.1-1.6,9.27-4.22,12.45-7.82M127.8,142.8v.33c0,8.64-2.13,15.19-6.33,19.43-4.2,4.26-10.65,6.41-19.18,6.41H18.84v-27.19c0-3.95,4.48-6.22,7.68-3.93l28.6,20.62c1,.72,2.42.49,3.15-.51l2.03-2.83c.72-1,.49-2.42-.51-3.15l-15.09-10.85c-4.38-3.17-1.09-10.05,4.12-8.6l64.86,18.02c1.21.33,2.46-.37,2.78-1.56l.92-3.36c.35-1.19-.37-2.44-1.56-2.76l-56.06-15.58c-5.43-1.52-4.34-9.5,1.29-9.5h41.23c8.54,0,15.01,2.09,19.2,6.2,4.18,4.12,6.31,10.44,6.31,18.81M127.8,83.98c0,8.37-2.13,14.7-6.31,18.79-4.2,4.14-10.67,6.22-19.2,6.22h-41.23c-5.63,0-6.72-8-1.29-9.5l56.06-15.58c1.19-.35,1.9-1.58,1.56-2.78l-.92-3.34c-.33-1.21-1.58-1.9-2.78-1.58l-64.86,18.04c-5.2,1.43-8.5-5.45-4.12-8.6l15.09-10.87c1-.72,1.23-2.13.51-3.15l-2.03-2.8c-.74-1-2.15-1.25-3.15-.51l-28.6,20.6c-3.19,2.31-7.68.02-7.68-3.93v-27.17h83.45c8.54,0,14.99,2.15,19.18,6.39,4.2,4.26,6.33,10.79,6.33,19.45v.33Z"/>
    <path class="st1" d="M538.22,177.46h-8.74c-1.23,0-2.25-1.02-2.25-2.27v-107.65c0-5.06-.94-7.82-4.05-8.93-2.4-.88-5.65-.63-8.58,3.48l-32.57,47.03,11.61,16.32c7.88,10.89,5.59,23.85-2.31,30.77-4.65,4.07-10.77,5.26-16.26,5.45-4.77.16-9.56-.96-13.49-3.69-9.79-6.8-11.73-20.13-5.16-29.36l11.61-16.34-35.68-47.89c-2.93-4.14-7.35-4.52-10.5-3.5-3.15,1-6.51,3.87-6.51,8.93v105.37c0,1.25-1.02,2.27-2.27,2.27h-4.36c-1.23,0-2.25-1.02-2.25-2.27v-105.5c0-8.07,6.18-16.99,13.84-19.47,7.8-2.54,16.13-1.99,22.4,5.86l33.9,45.39,30.79-44.51c4.71-6.59,12.75-9.27,20.47-6.78,7.64,2.46,12.65,9.79,12.65,17.81v107.2c0,1.25-1.02,2.27-2.27,2.27M473.47,119.93l-9.81,13.78c-3.28,4.61-2.87,10.95.94,15.11,2.31,2.52,5.45,3.91,8.86,3.91s6.55-1.39,8.86-3.91c3.81-4.16,4.22-10.5.94-15.11l-9.81-13.78Z"/>
    <path class="st1" d="M313.56,113.19v.18c0,10.54-1.17,18.49-3.44,23.63-2.29,5.1-5.81,7.7-10.48,7.7s-8.19-2.6-10.46-7.7c-2.29-5.14-3.44-13.08-3.44-23.63v-.18c0-10.48,1.15-18.36,3.44-23.46,2.27-5.08,5.79-7.66,10.46-7.66s8.19,2.58,10.48,7.66c2.27,5.1,3.44,12.98,3.44,23.46"/>
  </g>
  <g>
    <path class="st0" d="M775.69,67.54c0-1.78-1.29-3.2-3.13-3.2h-5.53v6.43h5.53c1.83,0,3.13-1.42,3.13-3.23Z"/>
    <path class="st0" d="M753.74,70.82c0,9.81,7.98,17.79,17.79,17.79s17.79-7.98,17.79-17.79-7.98-17.79-17.79-17.79-17.79,7.98-17.79,17.79ZM777.65,67.54c0,2.87-1.94,4.81-4.24,5.09l4.55,6.59h-2.3l-4.52-6.56h-4.11v6.56h-1.94v-16.8h7.75c2.53,0,4.81,2.02,4.81,5.12Z"/>
    <path class="st0" d="M753.29,70.82c0-9.98,8.06-18.11,18.01-18.23v-4.62c-12.5.12-22.64,10.32-22.64,22.85s10.13,22.73,22.64,22.85v-4.62c-9.95-.12-18.01-8.25-18.01-18.23Z"/>
    <path class="st0" d="M771.75,47.97v4.62c9.95.12,18.01,8.25,18.01,18.23s-8.06,18.11-18.01,18.23v4.62c12.5-.12,22.64-10.32,22.64-22.85s-10.13-22.73-22.64-22.85Z"/>
    <path class="st1" d="M765.09,79.22h1.94v-6.56h4.11l4.52,6.56h2.3l-4.55-6.59c2.3-.29,4.24-2.22,4.24-5.09,0-3.1-2.27-5.12-4.81-5.12h-7.75v16.8ZM767.03,64.33h5.53c1.83,0,3.13,1.42,3.13,3.2s-1.29,3.23-3.13,3.23h-5.53v-6.43Z"/>
    <path class="st1" d="M771.53,47.5c-12.86,0-23.31,10.46-23.31,23.31s10.46,23.32,23.31,23.32,23.31-10.46,23.31-23.32-10.46-23.31-23.31-23.31ZM771.75,93.67v.24h-.45v-.24c-12.5-.12-22.64-10.32-22.64-22.85s10.13-22.73,22.64-22.85v-.24h.45v.24c12.5.12,22.64,10.32,22.64,22.85s-10.13,22.73-22.64,22.85Z"/>
    <path class="st1" d="M771.3,52.8v-.21c-9.95.12-18.01,8.25-18.01,18.23s8.06,18.11,18.01,18.23v-.22h.45v.22c9.95-.12,18.01-8.25,18.01-18.23s-8.06-18.11-18.01-18.23v.21h-.45ZM789.32,70.82c0,9.81-7.98,17.79-17.79,17.79s-17.79-7.98-17.79-17.79,7.98-17.79,17.79-17.79,17.79,7.98,17.79,17.79Z"/>
    <polygon class="st1" points="771.75 88.83 771.3 88.83 771.3 89.05 771.3 93.67 771.3 93.91 771.75 93.91 771.75 93.67 771.75 89.05 771.75 88.83"/>
    <polygon class="st1" points="771.3 52.8 771.75 52.8 771.75 52.59 771.75 47.97 771.75 47.73 771.3 47.73 771.3 47.97 771.3 52.59 771.3 52.8"/>
  </g>
</svg>